<?xml version="1.0" encoding="UTF-8"?>
<svg id="Layer_1" xmlns="http://www.w3.org/2000/svg" version="1.1" viewBox="0 0 470 88">
  <path d="M65.3,40.6c0,14.5-8.3,30.1-30.7,30.1S3.8,61.8,3.8,40.6,14.9,9.6,36.8,10.8c23.3,1.3,28.5,19.4,28.5,29.8ZM23.6,29.6c-2,3.3-3,7.1-2.8,10.9,0,8.9,4.4,16.9,13.8,16.9s13.6-7.4,13.6-16.2c.4-5.1-1.3-10.2-4.7-14-2.7-2.4-6.3-3.5-9.9-3.1-4.1,0-7.8,2-10,5.5Z" fill="white"/>
  <path d="M214.8,17.3c1.5-1.9,3.5-3.4,5.7-4.5,3.3-1.3,6.8-2,10.4-2,3.5-.1,7,.6,10.2,2.2,6,3.2,7.6,8.3,7.6,17.2v39.1h-16.8v-32.2c.3-2.9,0-5.8-.8-8.5-1.4-2.9-4.4-4.6-7.6-4.4-8.9,0-8.9,7.1-8.9,14.2v30.9h-16.9V12.2h17v5Z" fill="white"/>
  <path d="M189.8,54.6c-1.5,3.3-6.5,16.2-28.5,16.2s-28.9-10.4-28.9-29.1,6.8-30.8,29.4-30.8c7.6-.6,15.1,2.1,20.6,7.5,7.4,8,7.9,19.2,8.1,25.6h-40.9c-.8,7.1,4.4,13.4,11.4,14.2.5,0,1.1,0,1.6,0,6.5,0,12.3-4,14.5-10.1l12.7,6.5ZM173,33.4c-.1-3-1.3-5.8-3.2-8.1-2.2-2.1-5.2-3.2-8.2-3.2-3.2,0-6.3,1.3-8.5,3.7-1.8,2.1-3,4.8-3.4,7.6h23.3Z" fill="white"/>
  <path d="M424.4,24.1h11.2v-11.9h-11.1V.2h-16.8v12h-2.7l-7.7,11.9h10.3v27.2c-.5,4.5.3,9,2.4,12.9,3.6,5.3,10,5.6,15.8,5.6,3,0,5.9-.3,8.9-.9v-13.2l-6,.2c-4.5,0-4.5-3-4.4-6.5v-25.4Z" fill="white"/>
  <path d="M257,.2h16.8v12h17.4l-7.7,11.9h-9.9v25.4c-.1,3.5-.1,6.5,4.4,6.5l6-.2v13.1c-2.9.5-5.9.8-8.9.9-5.8,0-12.2-.3-15.8-5.6-2.1-4-2.9-8.5-2.4-12.9V.2Z" fill="white"/>
  <path d="M451.1,24.1h-2.1v-10.1h-3.8v-1.8h9.6v1.8h-3.7v10.1ZM467.3,24.1h-2v-7.3c0,0,.2-2.4.2-2.4l-.6,2-2.4,7.7h-1.8l-2.4-7.7-.6-2v2.4c.1,0,.2,7.3.2,7.3h-2v-11.9h2.8l3,9.4,2.9-9.4h2.8v11.9Z" fill="white"/>
  <path d="M344,54.6l-3.2,5c-3,4.4-8.7,11.2-24.9,11.2s-28.4-10.4-28.4-29.1,6.8-30.8,29.4-30.8c7.6-.6,15.1,2.1,20.6,7.5,7.4,8,7.9,19.2,8.1,25.6h-40.8c-.1,7.1,3.4,14.2,12.5,14.2s11.9-6,13.9-10.1l12.8,6.5ZM328.2,33.4c-.1-3-1.3-5.8-3.2-8.1-2.2-2.1-5.2-3.2-8.2-3.2-3.2,0-6.3,1.3-8.5,3.7-1.8,2.1-3,4.8-3.4,7.6h23.3Z" fill="white"/>
  <polygon points="401.5 69.3 380.5 39.3 398 12.2 378.8 12.2 370.6 25 361.7 12.2 342.5 12.2 361.3 39.3 341.9 69.3 361.1 69.3 371.3 53.6 382.3 69.3 401.5 69.3" fill="white"/>
  <path d="M88.4,17.3c3.7-4.4,9.3-6.8,15-6.5,14,0,23.9,10.6,23.9,29.7s-4.3,30.2-24.6,30.2c-5.5.1-10.8-2.2-14.4-6.5v23.9h-16.9V12.2h17v5ZM99.8,24c-3.4,0-6.6,1.6-8.7,4.3-2.5,3.7-3.8,8.1-3.5,12.5-.3,4.7,1.1,9.4,4.1,13.2,1.9,2.2,4.7,3.4,7.6,3.4,8.2,0,11.8-8.7,11.8-17s-2.1-14.5-9-16.1c-.8-.2-1.5-.3-2.3-.3Z" fill="white"/>
</svg>