<?xml version="1.0" encoding="UTF-8"?>
<svg version="1.1" x="0px" y="0px" width="614.71075" height="91.545288" viewBox="0 0 614.71 91.545" xml:space="preserve" xmlns="http://www.w3.org/2000/svg">
<style type="text/css">
	.st0{fill:#7DCC26;}
	.st1{fill:#ffffff;}
</style>
<g transform="translate(-21.2,-47.9)">
	<path class="st0" d="m35.6 63.1 45.4 46.2s4.1 4 4.1 10.5c0 3.9-2.9 16-16 16-6.4 0-10.7-4-10.7-4l-30.9-31.1s-6.3-5.4-6.3-12.9v-20c0-8 8-8 8-8 3.8 0.1 6.4 3.3 6.4 3.3zm107 0-45.4 46.2s-4.1 4-4.1 10.5c0 3.9 2.9 16 16 16 6.4 0 10.7-4 10.7-4l30.9-31.1s6.3-5.4 6.3-12.9v-20c0-8-8-8-8-8-3.8 0.1-6.4 3.3-6.4 3.3zm-53.5-15.2c-11 0-20 9-20 20 0 5 1.9 9.6 4.9 13.1l12.1 13.5c0.7 0.8 1.8 1.3 3 1.3s2.3-0.5 3-1.3l11.8-13.2c3.2-3.6 5.2-8.3 5.2-13.5 0-11-8.9-19.9-20-19.9z"/>
	<path class="st1" d="m254.9 55.8-16 47.9h-16l-9.3-28-9.3 28h-16l-16-47.9h16l9.5 28.6 9.5-28.6h12.5l9.5 28.6 9.5-28.6z"/>
	<path class="st1" d="m308.6 91.8v12h-49.3v-48h49.3v12h-34.6v6h32v12h-32v6z"/>
	<path class="st1" d="m370.5 90c0 7.6-6.2 13.8-13.8 13.8h-40.8v-48h38.1c7.6 0 13.8 6.2 13.8 13.8 0 3.4-1.2 6.5-3.3 9 3.6 2.5 6 6.6 6 11.4zm-40-22.2v6.7h19.3c1.8 0 3.3-1.5 3.3-3.3s-1.5-3.3-3.3-3.3h-19.3zm25.3 20.6c0-1.8-1.5-3.3-3.3-3.3h-22v6.7h22c1.8 0 3.3-1.5 3.3-3.4z"/>
	<path class="st1" d="m409 91.8h-17.6v12h-14.6v-48h36.6c9.9 0 18 8.1 18 18 0 6-3 11.4-7.6 14.6l8.1 15.3h-16.5zm-17.6-12h19.3c3.3 0 6-2.7 6-6s-2.7-6-6-6h-19.3z"/>
	<path class="st1" d="m466.9 105.1c-18.7 0-30.7-5.3-30.7-25.3 0-18.6 10.7-25.3 30.7-25.3 19.9 0 30.6 6.7 30.6 25.3 0 20-10.7 25.3-30.6 25.3zm0-38.6c-9.4 0-14.7 2.7-14.7 13.3 0 10.7 5.3 13.3 14.7 13.3 9.3 0 14.6-2.7 14.6-13.3 0-10.7-5.2-13.3-14.6-13.3z"/>
	<path class="st1" d="m532.9 105.1c-18.7 0-30.7-5.3-30.7-25.3 0-18.6 10.7-25.3 30.7-25.3 19.9 0 30.6 6.7 30.6 25.3 0 20-10.7 25.3-30.6 25.3zm0-38.6c-9.4 0-14.7 2.7-14.7 13.3 0 10.7 5.3 13.3 14.7 13.3 9.3 0 14.6-2.7 14.6-13.3 0-10.7-5.2-13.3-14.6-13.3z"/>
	<path class="st1" d="m619.9 67.8h-19.3v35.9h-14.6v-35.9h-19.3v-12h53.3v12z"/>
	<path class="st1" d="m634.2 65.8c-1.1 1.1-2.5 1.6-4.1 1.6s-3-0.6-4.1-1.7-1.7-2.5-1.7-4.1c0-1.7 0.6-3.1 1.8-4.2 1.1-1.1 2.5-1.6 4-1.6 1.6 0 3 0.6 4.1 1.7s1.7 2.5 1.7 4.1c0.1 1.7-0.5 3.1-1.7 4.2zm-7.5-7.5c-0.9 0.9-1.4 2.1-1.4 3.4s0.5 2.5 1.4 3.4 2.1 1.4 3.4 1.4 2.4-0.5 3.4-1.4c0.9-1 1.4-2.1 1.4-3.4s-0.5-2.4-1.4-3.4-2.1-1.4-3.4-1.4c-1.3-0.1-2.4 0.4-3.4 1.4zm0.9 6.6v-6.4h1.8 1.3c0.5 0 0.9 0.1 1.3 0.3 0.6 0.3 0.9 0.8 0.9 1.5 0 0.5-0.2 0.9-0.5 1.2-0.3 0.2-0.7 0.4-1.1 0.4 0.4 0.1 0.7 0.2 0.9 0.4 0.4 0.3 0.6 0.8 0.6 1.4v0.6 0.2 0.2l0.1 0.2h-1.6c-0.1-0.2-0.1-0.5-0.1-0.9s-0.1-0.7-0.1-0.8c-0.1-0.2-0.2-0.4-0.5-0.5-0.1-0.1-0.3-0.1-0.6-0.1h-0.8v2.3zm3.1-5.2c-0.2-0.1-0.6-0.1-1-0.1h-0.4v1.9h0.7c0.4 0 0.7-0.1 0.9-0.2 0.2-0.2 0.3-0.4 0.3-0.8s-0.2-0.7-0.5-0.8z"/>
</g><g transform="translate(-21.405 -90.055)">
	<path class="st1" d="m326.6 164.8c-0.9-0.4-1.9-0.6-2.7-0.6-2.7 0-4.3 2.5-4.3 5 0 2.4 1.3 5 4.4 5 0.8 0 1.9-0.3 2.6-0.8l0.2 2.2c-1 0.5-2.2 0.5-3.1 0.5-4 0-6.8-3.2-6.8-7 0-4 2.7-7 6.8-7 1 0 2.3 0.2 3 0.5z"/>
	<path class="st1" d="m334.6 162.2c4 0 6.8 2.9 6.8 7 0 3.8-2.8 7-6.8 7s-6.8-3.2-6.8-7c0-4 2.7-7 6.8-7zm0 12c2.9 0 4.1-2.6 4.1-5 0-2.5-1.5-5-4.1-5s-4.2 2.5-4.2 5c0 2.4 1.3 5 4.2 5z"/>
	<path class="st1" d="m343.6 162.5h2.3v1.9h0.1c0.9-1.5 2.3-2.2 4.2-2.2 1.5 0 3.1 0.8 3.8 2.6 0.9-1.9 2.9-2.6 4.1-2.6 3.4 0 4.6 2.2 4.6 5.1v8.5h-2.5v-7.9c0-1.6-0.4-3.7-2.4-3.7-2.5 0-3.5 2.5-3.5 4.9v6.7h-2.5v-7.9c0-1.6-0.4-3.7-2.4-3.7-2.5 0-3.5 2.5-3.5 4.9v6.7h-2.5v-13.3z"/>
	<path class="st1" d="m365.7 162.5h2.3v1.9h0.1c0.7-1 2.2-2.2 4.5-2.2 3.9 0 5.7 3.2 5.7 6.7 0 3.7-1.7 7.2-5.7 7.2-2.3 0-3.7-0.9-4.4-2.1h-0.1v7.3h-2.5v-18.8zm6.4 1.7c-2.7 0-3.9 2.5-3.9 5 0 2.2 1.1 5 3.9 5 2.6 0 3.7-2.9 3.7-5 0-2.5-1-5-3.7-5z"/>
	<path class="st1" d="m381.3 163.5c1.2-0.7 2.7-1.3 4.4-1.3 3.8 0 5.3 1.9 5.3 5.5v5.5c0 1.5 0.1 2.2 0.1 2.6h-2.3v-1.7h-0.1c-0.6 0.8-1.9 2-4.1 2-2.9 0-4.9-1.3-4.9-4.1 0-3.3 3.7-4.4 6.2-4.4 1 0 1.6 0 2.6 0.1 0-2.3-0.8-3.5-3.3-3.5-1.4 0-2.9 0.5-3.9 1.4zm7.2 6c-0.5 0-1-0.1-1.6-0.1-1.3 0-4.6 0.2-4.6 2.6 0 1.4 1.4 2.2 2.5 2.2 2.4 0 3.7-1.5 3.7-3.5z"/>
	<path class="st1" d="m394.1 162.5h2.4v2.1h0.1c0.7-1.5 2.5-2.4 4.4-2.4 3.4 0 5 2.1 5 5.7v7.9h-2.5v-6.8c0-3.1-0.7-4.6-2.8-4.7-2.8 0-4 2.2-4 5.5v6.2h-2.5v-13.5z"/>
	<path class="st1" d="m408 179.4c0.3 0.1 0.7 0.2 1.1 0.2 2.2 0 2.9-3 2.9-3.3s-0.3-1-0.5-1.4l-4.5-12.4h2.7l3.6 11h0.1l3.7-11h2.5l-4.9 13.6c-0.9 2.6-1.9 5.5-5.1 5.5-0.8 0-1.2-0.1-1.7-0.2z"/>
	<path class="st1" d="m175.1 163.5c1.2-0.7 2.7-1.3 4.4-1.3 3.8 0 5.3 1.9 5.3 5.5v5.5c0 1.5 0.1 2.2 0.1 2.6h-2.3v-1.7h-0.1c-0.6 0.8-1.9 2-4.1 2-2.9 0-4.9-1.3-4.9-4.1 0-3.3 3.7-4.4 6.2-4.4 1 0 1.6 0 2.6 0.1 0-2.3-0.8-3.5-3.3-3.5-1.4 0-2.9 0.5-3.9 1.4zm7.3 6c-0.5 0-1-0.1-1.6-0.1-1.3 0-4.6 0.2-4.6 2.6 0 1.4 1.4 2.2 2.5 2.2 2.4 0 3.7-1.5 3.7-3.5z"/>
	<path class="st1" d="m187.9 162.5h2.4v2.1h0.1c0.7-1.5 2.5-2.4 4.4-2.4 3.4 0 5 2.1 5 5.7v7.9h-2.5v-6.8c0-3.1-0.7-4.6-2.8-4.7-2.8 0-4 2.2-4 5.5v6.2h-2.5v-13.5z"/>
	<path class="st1" d="m226.6 163.6v-1h-3.9v17.5h3.8v-5.4c0.2 0.1 0.2 0.1 0.3 0.2 2.4 2 6.1 1.4 7.7-1.3 1.4-2.4 1.5-5 0.7-7.6-1.2-3.8-5.7-5.1-8.6-2.4zm4.7 8c-0.5 0.9-1.2 1.4-2.3 1.3-1-0.1-1.8-0.6-2.1-1.6-0.3-0.7-0.5-1.5-0.5-2.3s0.2-1.6 0.5-2.3c0.4-1 1.3-1.4 2.3-1.5 1 0 1.7 0.5 2.1 1.4 0.9 1.7 0.8 3.4 0 5z"/>
	<path class="st1" d="m211.4 162.6c-2.8 0.8-4.4 3.3-4.3 6.5 0 2.5 0.8 4.7 3.1 6s4.7 1.4 7.1 0.5c4.7-1.8 5.1-8.3 2.3-11.2-2.4-2.4-5.3-2.7-8.2-1.8zm4.5 9.8c-1.5 1.1-3.8 0.5-4.6-1.3-0.6-1.4-0.6-2.9 0.1-4.3 0.6-1.2 1.6-1.6 2.8-1.6s3.1 0.8 3.1 3.7c0.1 1.5-0.3 2.6-1.4 3.5z"/>
	<path class="st1" d="m250.3 169.9c-0.1-1.5-0.2-2.9-0.8-4.3-0.8-1.7-2.1-2.8-3.9-3.3-1.4-0.3-2.8-0.3-4.1 0.1-2.1 0.5-3.4 1.9-4.2 3.9-0.4 1.2-0.6 2.5-0.5 3.7 0.2 2.6 1.4 4.6 3.9 5.5 2.4 0.8 4.8 0.6 7.1-0.6 1.1-0.6 1.8-1.5 2.3-2.7-1-0.5-1.9-1-2.9-1.5-1.5 2.1-2.9 2.8-4.6 2.1-1.2-0.5-1.9-1.8-1.7-3 3.1 0.1 6.3 0.1 9.4 0.1zm-9.4-2.5c0.2-1.6 1.3-2.6 2.8-2.6s2.4 1 2.5 2.6h-5.3z"/>
	<path class="st1" d="m283 170.8c-1.1 2.2-2.5 2.6-4.2 2.1-1.2-0.3-2-1.6-1.8-3.1h9.4c0-1.6-0.2-3.1-0.9-4.5-0.8-1.6-2.1-2.7-3.9-3.1-1.4-0.3-2.7-0.2-4.1 0.1-1.9 0.5-3.2 1.7-4 3.5-0.8 1.7-0.8 3.6-0.4 5.4 0.6 2.5 2.1 4 4.5 4.6 1.2 0.3 2.5 0.2 3.8 0 2.2-0.3 3.6-1.6 4.5-3.6-1-0.4-2-0.9-2.9-1.4zm-3.3-6c1.5 0 2.5 1 2.6 2.6h-5.3c0-1.5 1.1-2.6 2.7-2.6z"/>
	<path class="st1" d="m262.2 162.8c-1.2-0.7-2.4-0.7-3.7-0.5-1 0.2-1.8 0.5-2.5 1.4 0-0.5 0-0.8-0.1-1.1h-3.9v13.2h3.9v-0.3-6.9c0-0.5 0-1.1 0.1-1.6 0.1-0.7 0.5-1.3 1.2-1.4 0.8-0.2 1.6-0.2 2.1 0.4 0.3 0.4 0.5 1.1 0.5 1.6 0.1 2.5 0 5 0.1 7.6v0.7h3.8c0-0.1 0.1-0.1 0.1-0.1 0-3.4 0-6.8-0.1-10.1 0-1.4-0.5-2.3-1.5-2.9z"/>
	<path class="st1" d="m298.4 162.5h-4.5l-1.9 3s-0.6-0.8-0.8-1.2l-1.2-1.8h-4.5l4.3 6.3-4.4 6.9h4.3l2.4-3.6 2.5 3.6h4.5l-4.9-7z"/>
	<path class="st1" d="m304.6 159.7h-3.9v2.7h-0.6l-1.8 2.8h2.4v0.8 6.8c0 1.6 0.9 2.6 2.4 2.9 1.3 0.2 3.7 0 3.7 0v-3.1h-1.7c-0.6 0-0.7-0.4-0.7-0.8v-6.5h2.6v-2.7h-2.6c0.2-1.1 0.2-2 0.2-2.9z"/>
	<path class="st1" d="m270.4 172.6c-0.4 0-0.8-0.2-0.8-0.8v-6.5h2.3s1.3-2.1 1.8-2.8h-4.1v-2.7h-3.8v0.7 11.1 1.4c0 1.7 1.2 2.9 2.9 2.9 1.1 0 3.3-0.1 3.3-0.1v-3.2h-1.6z"/>
	<polygon class="st1" points="309.4 162.9 310.3 162.9 310.3 165.2 310.7 165.2 310.7 162.9 311.6 162.9 311.6 162.5 309.4 162.5"/>
	<polygon class="st1" points="311.9 165.2 312.3 165.2 312.3 163.2 312.9 165.2 313 165.2 313.3 165.2 313.4 165.2 314.1 163.1 314.1 165.2 314.5 165.2 314.5 162.5 314.3 162.5 314.1 162.5 313.9 162.5 313.2 164.7 312.5 162.5 312.3 162.5 312.1 162.5 311.9 162.5"/>
	</g>
</svg>
