<svg width="16" height="10" viewBox="0 0 16 10" fill="none" xmlns="http://www.w3.org/2000/svg">
<path d="M1.69661 1.72924L7.04566 6.98521C7.04566 6.98521 7.52872 7.44027 7.52872 8.17975C7.52872 8.62344 7.18704 10 5.64359 10C4.88954 10 4.38292 9.54494 4.38292 9.54494L0.742268 6.00683C0.742268 6.00683 0 5.39249 0 4.53925V2.26394C0 1.35381 0.942563 1.35381 0.942563 1.35381C1.39028 1.36519 1.69661 1.72924 1.69661 1.72924ZM14.3034 1.72924L8.95434 6.98521C8.95434 6.98521 8.47128 7.44027 8.47128 8.17975C8.47128 8.62344 8.81296 10 10.3564 10C11.1105 10 11.6171 9.54494 11.6171 9.54494L15.2577 6.00683C15.2577 6.00683 16 5.39249 16 4.53925V2.26394C16 1.35381 15.0574 1.35381 15.0574 1.35381C14.6097 1.36519 14.3034 1.72924 14.3034 1.72924ZM8 0C6.70398 0 5.64359 1.02389 5.64359 2.27531C5.64359 2.84414 5.86745 3.36746 6.22091 3.76564L7.64654 5.30148C7.72901 5.39249 7.85861 5.44937 8 5.44937C8.14138 5.44937 8.27099 5.39249 8.35346 5.30148L9.74374 3.79977C10.1208 3.39022 10.3564 2.85552 10.3564 2.26394C10.3564 1.01251 9.30781 0 8 0Z" fill="#7DCC26"/>
</svg>
