<svg width="24" height="24" viewBox="2 0 24 24" fill="none" xmlns="http://www.w3.org/2000/svg">
<path d="M7.79289 12L11.1464 8.64645C11.3417 8.45118 11.6583 8.45118 11.8536 8.64645C12.0488 8.84171 12.0488 9.15829 11.8536 9.35355L9.70711 11.5L15.5 11.5C15.7761 11.5 16 11.7239 16 12C16 12.2761 15.7761 12.5 15.5 12.5L9.70711 12.5L11.8536 14.6464C12.0488 14.8417 12.0488 15.1583 11.8536 15.3536C11.6583 15.5488 11.3417 15.5488 11.1464 15.3536L7.79289 12Z" fill="#898989"/>
<path fill-rule="evenodd" clip-rule="evenodd" d="M20 12C20 16.4183 16.4183 20 12 20C7.58172 20 4 16.4183 4 12C4 7.58172 7.58172 4 12 4C16.4183 4 20 7.58172 20 12ZM19 12C19 15.866 15.866 19 12 19C8.13401 19 5 15.866 5 12C5 8.13401 8.13401 5 12 5C15.866 5 19 8.13401 19 12Z" fill="#898989"/>
</svg>
