<svg width="24" height="24" viewBox="0 0 24 24" fill="none" xmlns="http://www.w3.org/2000/svg">
<path d="M16.2071 12L12.8536 15.3536C12.6583 15.5488 12.3417 15.5488 12.1464 15.3536C11.9512 15.1583 11.9512 14.8417 12.1464 14.6464L14.2929 12.5H8.5C8.22386 12.5 8 12.2761 8 12C8 11.7239 8.22386 11.5 8.5 11.5L14.2929 11.5L12.1464 9.35355C11.9512 9.15829 11.9512 8.84171 12.1464 8.64645C12.3417 8.45118 12.6583 8.45118 12.8536 8.64645L16.2071 12Z" fill="#898989"/>
<path fill-rule="evenodd" clip-rule="evenodd" d="M20 12C20 16.4183 16.4183 20 12 20C7.58172 20 4 16.4183 4 12C4 7.58172 7.58172 4 12 4C16.4183 4 20 7.58172 20 12ZM19 12C19 15.866 15.866 19 12 19C8.13401 19 5 15.866 5 12C5 8.13401 8.13401 5 12 5C15.866 5 19 8.13401 19 12Z" fill="#898989"/>
</svg>
