<svg width="12" height="12" viewBox="0 0 12 12" fill="none" xmlns="http://www.w3.org/2000/svg">
<circle cx="6.0001" cy="6.0001" r="5.4" fill="white"/>
<path d="M12 6C12 7.18669 11.6481 8.34672 10.9888 9.33342C10.3295 10.3201 9.39246 11.0891 8.2961 11.5433C7.19974 11.9974 5.99335 12.1162 4.82946 11.8847C3.66557 11.6532 2.59648 11.0818 1.75736 10.2426C0.918247 9.40352 0.346802 8.33443 0.115291 7.17054C-0.11622 6.00665 0.00259972 4.80025 0.456725 3.7039C0.910851 2.60754 1.67989 1.67047 2.66658 1.01118C3.65328 0.351894 4.81331 0 6 0C7.5913 0 9.11742 0.632141 10.2426 1.75736C11.3679 2.88258 12 4.4087 12 6ZM6 7.21C5.77987 7.21 5.56468 7.27527 5.38165 7.39757C5.19862 7.51987 5.05596 7.6937 4.97172 7.89707C4.88748 8.10045 4.86544 8.32423 4.90839 8.54013C4.95133 8.75603 5.05734 8.95435 5.21299 9.11001C5.36865 9.26566 5.56697 9.37167 5.78287 9.41461C5.99877 9.45756 6.22255 9.43552 6.42593 9.35128C6.6293 9.26704 6.80313 9.12438 6.92543 8.94135C7.04772 8.75832 7.113 8.54313 7.113 8.323C7.113 8.02781 6.99574 7.74472 6.78701 7.53599C6.57828 7.32726 6.29519 7.21 6 7.21ZM4.943 3.21L5.122 6.5C5.12585 6.57428 5.15809 6.64425 5.21207 6.69543C5.26604 6.74661 5.33762 6.7751 5.412 6.775H6.586C6.66038 6.7751 6.73196 6.74661 6.78594 6.69543C6.83991 6.64425 6.87215 6.57428 6.876 6.5L7.055 3.21C7.05718 3.17059 7.05129 3.13115 7.03769 3.0941C7.0241 3.05705 7.00308 3.02316 6.97593 2.99451C6.94878 2.96587 6.91607 2.94306 6.8798 2.9275C6.84353 2.91194 6.80447 2.90394 6.765 2.904H5.233C5.19353 2.90394 5.15447 2.91194 5.1182 2.9275C5.08193 2.94306 5.04922 2.96587 5.02207 2.99451C4.99492 3.02316 4.9739 3.05705 4.96031 3.0941C4.94671 3.13115 4.94082 3.17059 4.943 3.21Z" fill="#A70000"/>
</svg>
