<svg width="12" height="12" viewBox="0 0 12 12" fill="none" xmlns="http://www.w3.org/2000/svg">
<g clip-path="url(#clip0_317_3211)">
<path d="M11.8125 6C11.8125 9.21016 9.21016 11.8125 6 11.8125C2.78984 11.8125 0.1875 9.21016 0.1875 6C0.1875 2.78984 2.78984 0.1875 6 0.1875C9.21016 0.1875 11.8125 2.78984 11.8125 6ZM5.32767 9.07767L9.64017 4.76517C9.78661 4.61873 9.78661 4.38129 9.64017 4.23485L9.10985 3.70453C8.96341 3.55807 8.72597 3.55807 8.57951 3.70453L5.0625 7.22152L3.42049 5.57951C3.27405 5.43307 3.03661 5.43307 2.89015 5.57951L2.35983 6.10983C2.21339 6.25627 2.21339 6.49371 2.35983 6.64015L4.79733 9.07765C4.94379 9.22411 5.18121 9.22411 5.32767 9.07767Z" fill="#408740"/>
<path d="M4.95108 9.16228C4.92234 9.15203 4.87595 9.12774 4.84799 9.1083C4.82003 9.08887 4.23989 8.51454 3.55877 7.83202C2.70348 6.97495 2.31251 6.57406 2.29493 6.53608C2.28093 6.50584 2.26684 6.44217 2.26363 6.39459C2.25316 6.23935 2.26756 6.21779 2.61703 5.86531C2.96419 5.51517 3.0132 5.47991 3.1525 5.48001C3.31032 5.48013 3.28899 5.46191 4.21569 6.38804L5.06377 7.2356L6.84782 5.45146C7.93589 4.36334 8.65339 3.65593 8.68702 3.63811C8.7652 3.59668 8.92616 3.59691 9.00334 3.63854C9.08887 3.68468 9.67664 4.28228 9.71036 4.35739C9.74979 4.44521 9.7479 4.56444 9.70566 4.65292C9.67902 4.70874 9.25766 5.13638 7.46181 6.9302C5.29625 9.09332 5.24923 9.1392 5.17611 9.16044C5.08598 9.18662 5.02082 9.18716 4.95108 9.16228Z" fill="white" stroke="white" stroke-width="0.021764"/>
</g>
<defs>
<clipPath id="clip0_317_3211">
<rect width="12" height="12" fill="white"/>
</clipPath>
</defs>
</svg>
