<svg width="24" height="24" viewBox="0 0 24 24" fill="none" xmlns="http://www.w3.org/2000/svg">
<path fill-rule="evenodd" clip-rule="evenodd" d="M13.0726 18.6133C13.0199 18.8398 12.8181 19 12.5856 19C11.4788 19 10.6461 18.1925 10.2672 17.0933C10.1992 16.896 10.186 16.6967 10.203 16.5155L10.4079 14.334L6.98883 14.334C6.64074 14.334 6.3014 14.225 6.01842 14.0223C5.25497 13.4755 5.11952 12.4447 5.61205 11.7261C5.55805 11.688 5.50635 11.6462 5.45734 11.6009C4.81362 11.0054 4.81362 9.98776 5.45734 9.39226C5.52471 9.32994 5.59717 9.27433 5.67369 9.22584C5.33617 8.62285 5.44815 7.83283 6.00964 7.35394C6.12391 7.25648 6.25124 7.17753 6.387 7.11879C6.19274 6.69247 6.20853 6.1972 6.43436 5.78208C6.69659 5.30005 7.2014 5 7.75014 5L12.4722 5C12.9767 5 13.4752 5.10907 13.9336 5.31974L15.0166 5.81743C15.1024 5.35232 15.5101 5 16 5L18 5C18.5523 5 19 5.44771 19 6L19 14C19 14.5523 18.5523 15 18 15L16 15C15.4789 15 15.0508 14.6014 15.0042 14.0924L13.6403 16.2906C13.6115 16.3369 13.5905 16.3877 13.5781 16.4409L13.0726 18.6133ZM18 14L16 14L16 6L18 6L18 14Z" fill="#707070"/>
</svg>
