<svg width="24" height="24" viewBox="0 0 24 24" fill="none" xmlns="http://www.w3.org/2000/svg">
<path fill-rule="evenodd" clip-rule="evenodd" d="M13.098 18.6133C13.0453 18.8398 12.8435 19 12.611 19C11.5042 19 10.6715 18.1925 10.2926 17.0933C10.2246 16.896 10.2113 16.6967 10.2284 16.5155L10.4333 14.334H7.01422C6.66613 14.334 6.32679 14.225 6.04381 14.0223C5.28036 13.4755 5.14491 12.4447 5.63744 11.7261C5.58344 11.688 5.53174 11.6462 5.48273 11.6009C4.83901 11.0054 4.83901 9.98776 5.48273 9.39226C5.5501 9.32994 5.62256 9.27433 5.69908 9.22584C5.36155 8.62285 5.47354 7.83284 6.03503 7.35394C6.1493 7.25648 6.27663 7.17753 6.41239 7.11879C6.21813 6.69247 6.23392 6.1972 6.45975 5.78208C6.72198 5.30005 7.22679 5 7.77553 5H12.4975C13.0021 5 13.5006 5.10907 13.959 5.31974L15.042 5.81743C15.1278 5.35232 15.5355 5 16.0254 5H18.0254C18.5777 5 19.0254 5.44771 19.0254 6V14C19.0254 14.5523 18.5777 15 18.0254 15H16.0254C15.5043 15 15.0762 14.6014 15.0296 14.0924L13.6657 16.2906C13.6369 16.3369 13.6159 16.3877 13.6035 16.4409L13.098 18.6133ZM15.0254 12.2673V6.91032L13.5415 6.22838C13.214 6.07791 12.8579 6 12.4975 6H7.77553C7.59313 6 7.42534 6.09974 7.33817 6.25996C7.25747 6.40831 7.25747 6.58746 7.33817 6.73581L7.3622 6.77997C7.43269 6.90955 7.56672 6.99147 7.71359 6.99561H8.22515V7.48517L8.22526 7.49577L8.22515 7.50637V7.99561H7.7382L7.72526 7.99577L7.70368 7.99561H7.00736C6.88881 7.99561 6.77415 8.03786 6.68396 8.11479C6.45068 8.31375 6.45068 8.67418 6.68396 8.87314C6.77119 8.94754 6.88131 8.98951 6.99569 8.99219H8.23959V9.99219L7.00736 9.99232L6.98713 9.99219H6.50434C6.37735 9.99219 6.25503 10.0401 6.16181 10.1263C5.94598 10.326 5.94598 10.6672 6.16181 10.8668C6.25503 10.9531 6.37735 11.001 6.50434 11.001H8.23959V12.001L7.01422 12.001C6.87501 12.001 6.73929 12.0446 6.62611 12.1256C6.25492 12.3915 6.25492 12.9435 6.62611 13.2093C6.73929 13.2904 6.87501 13.334 7.01422 13.334H10.9824C11.1232 13.334 11.2574 13.3933 11.3522 13.4974C11.4469 13.6014 11.4934 13.7406 11.4803 13.8808L11.224 16.609C11.2177 16.6763 11.2247 16.7289 11.238 16.7675C11.4596 17.4103 11.8263 17.7901 12.2294 17.9337L12.6295 16.2142C12.6666 16.0548 12.7296 15.9024 12.8159 15.7633L14.9005 12.4039C14.9343 12.3493 14.9769 12.3036 15.0254 12.2673ZM18.0254 14H16.0254V6H18.0254V14Z" fill="#898989"/>
</svg>
