<svg width="24" height="24" viewBox="0 0 24 24" fill="none" xmlns="http://www.w3.org/2000/svg">
<path fill-rule="evenodd" clip-rule="evenodd" d="M10.9274 5.38668C10.9801 5.16025 11.1819 5 11.4144 5C12.5212 5 13.3539 5.8075 13.7328 6.90665C13.8008 7.10403 13.814 7.30334 13.797 7.48449L13.5921 9.66601H17.0112C17.3593 9.66601 17.6986 9.775 17.9816 9.97769C18.745 10.5245 18.8805 11.5553 18.388 12.2739C18.442 12.312 18.4937 12.3538 18.5427 12.3991C19.1864 12.9946 19.1864 14.0122 18.5427 14.6077C18.4753 14.6701 18.4028 14.7257 18.3263 14.7742C18.6638 15.3772 18.5519 16.1672 17.9904 16.6461C17.8761 16.7435 17.7488 16.8225 17.613 16.8812C17.8073 17.3075 17.7915 17.8028 17.5656 18.2179C17.3034 18.6999 16.7986 19 16.2499 19H11.5278C11.0233 19 10.5248 18.8909 10.0664 18.6803L8.98337 18.1826C8.89757 18.6477 8.48993 19 8 19H6C5.44772 19 5 18.5523 5 18V10C5 9.44772 5.44772 9 6 9H8C8.52113 9 8.94915 9.39863 8.99579 9.90759L10.3597 7.70945C10.3885 7.66307 10.4095 7.6123 10.4219 7.55914L10.9274 5.38668ZM9 11.7327V17.0897L10.4839 17.7716C10.8114 17.9221 11.1675 18 11.5278 18H16.2499C16.4323 18 16.6001 17.9003 16.6872 17.74C16.7679 17.5917 16.7679 17.4125 16.6872 17.2642L16.6632 17.22C16.5927 17.0904 16.4587 17.0085 16.3118 17.0044H15.8002V16.5148L15.8001 16.5042L15.8002 16.4936V16.0044H16.2872L16.3001 16.0042L16.3217 16.0044H17.018C17.1366 16.0044 17.2512 15.9621 17.3414 15.8852C17.5747 15.6862 17.5747 15.3258 17.3414 15.1269C17.2542 15.0525 17.1441 15.0105 17.0297 15.0078H15.7858V14.0078L17.018 14.0077L17.0383 14.0078H17.5211C17.648 14.0078 17.7704 13.9599 17.8636 13.8737C18.0794 13.674 18.0794 13.3328 17.8636 13.1332C17.7704 13.0469 17.648 12.999 17.5211 12.999H15.7858V11.999L17.0112 11.999C17.1504 11.999 17.2861 11.9554 17.3993 11.8744C17.7705 11.6085 17.7705 11.0565 17.3993 10.7907C17.2861 10.7096 17.1504 10.666 17.0112 10.666H13.0429C12.9022 10.666 12.768 10.6067 12.6732 10.5026C12.5785 10.3986 12.532 10.2594 12.5451 10.1192L12.8014 7.39097C12.8077 7.32368 12.8006 7.27108 12.7874 7.23255C12.5658 6.5897 12.1991 6.20992 11.796 6.06629L11.3959 7.78577C11.3587 7.94525 11.2958 8.09757 11.2094 8.2367L9.12492 11.5961C9.09107 11.6507 9.04845 11.6964 9 11.7327ZM6 10H8V18H6V10Z" fill="#898989"/>
</svg>
