<svg width="24" height="24" viewBox="0 0 24 24" fill="none" xmlns="http://www.w3.org/2000/svg">
<path fill-rule="evenodd" clip-rule="evenodd" d="M10.9018 5.38668C10.9545 5.16024 11.1563 5 11.3888 5C12.4956 5 13.3283 5.80748 13.7072 6.90665C13.7752 7.10403 13.7885 7.30334 13.7715 7.48449L13.5665 9.66601L16.9856 9.66601C17.3337 9.66601 17.673 9.775 17.956 9.97769C18.7195 10.5245 18.8549 11.5553 18.3624 12.2739C18.4164 12.312 18.4681 12.3538 18.5171 12.3991C19.1608 12.9946 19.1608 14.0122 18.5171 14.6077C18.4497 14.6701 18.3773 14.7257 18.3007 14.7742C18.6383 15.3772 18.5263 16.1672 17.9648 16.6461C17.8505 16.7435 17.7232 16.8225 17.5874 16.8812C17.7817 17.3075 17.7659 17.8028 17.5401 18.2179C17.2778 18.7 16.773 19 16.2243 19L11.5023 19C10.9978 19 10.4992 18.8909 10.0408 18.6803L8.9578 18.1826C8.872 18.6477 8.46436 19 7.97443 19L5.97443 19C5.42215 19 4.97443 18.5523 4.97443 18L4.97443 10C4.97443 9.44771 5.42215 9 5.97443 9L7.97443 9C8.49556 9 8.92359 9.39862 8.97022 9.90759L10.3342 7.70945C10.3629 7.66307 10.3839 7.6123 10.3963 7.55914L10.9018 5.38668ZM5.97443 10L7.97443 10L7.97443 18L5.97443 18L5.97443 10Z" fill="#707070"/>
</svg>
