<svg width="32" height="32" viewBox="0 0 512 512" fill="none" xmlns="http://www.w3.org/2000/svg">
<path fill-rule="evenodd" clip-rule="evenodd" d="M451.633 85.2222L451.82 85.3045C473.574 94.9217 489.244 115.971 489.244 140.762C489.244 347.322 361.823 463.17 278.871 497.709L278.844 497.72C263.789 503.96 247.312 503.96 232.257 497.72L232.204 497.698C129.255 454.632 22.7556 325.556 22.7556 140.762C22.7556 116.588 36.9324 95.1847 59.2816 85.3045L59.4678 85.2222L232.843 13.3665L233.444 13.167C240.656 10.7759 247.901 9.6001 256 9.6001C263.35 9.6001 270.59 10.824 277.657 13.167L278.258 13.3665L451.633 85.2222ZM238.92 29.8827C244.313 28.0943 249.707 27.2001 256 27.2001C261.394 27.2001 266.788 28.0943 272.181 29.8827L444.782 101.418C460.964 108.571 471.751 123.772 471.751 140.762C471.751 339.271 349.492 449.256 272.181 481.447C261.394 485.918 249.707 485.918 238.92 481.447C142.731 441.208 40.2489 318.705 40.2489 140.762C40.2489 123.772 50.1375 108.571 66.3188 101.418L238.92 29.8827Z" fill="white" fill-opacity="1"/>
<path d="M444.782 101.418L272.181 29.8826C266.788 28.0943 261.394 27.2001 256 27.2001C249.707 27.2001 244.313 28.0943 238.92 29.8826L66.3188 101.418C50.1375 108.571 40.2489 123.772 40.2489 140.762C40.2489 318.705 142.731 441.208 238.92 481.447C249.707 485.918 261.394 485.918 272.181 481.447C349.492 449.256 471.751 339.271 471.751 140.762C471.751 123.772 460.964 108.571 444.782 101.418Z" fill="url(#paint0_linear_10688_164)" fill-opacity="1"/>
<path d="M216.441 334.793C220.882 339.247 228.433 339.247 232.875 334.793L363.46 203.853C367.901 199.399 367.901 191.828 363.46 187.374L347.47 171.34C343.028 166.887 335.921 166.887 331.48 171.34L224.88 278.23L174.689 228.348C170.247 223.895 163.141 223.895 158.699 228.348L142.709 244.382C138.267 248.836 138.267 256.407 142.709 260.861L216.441 334.793Z" fill="white" fill-opacity="1"/>
<defs>
<linearGradient id="paint0_linear_10688_164" x1="256" y1="27.2001" x2="256" y2="484.8" gradientUnits="userSpaceOnUse">
<stop stop-color="#7DCC26" stop-opacity="1"/>
<stop offset="1" stop-color="#00842D" stop-opacity="1"/>
</linearGradient>
</defs>
</svg>
