<svg width="32" height="32" viewBox="0 0 512 512" fill="none" xmlns="http://www.w3.org/2000/svg">
<path fill-rule="evenodd" clip-rule="evenodd" d="M307.181 65.9939L494.413 381.912C517.919 421.572 487.969 469.492 443.232 469.492H68.7677C24.0312 469.492 -5.91857 421.572 17.5865 381.912L204.819 65.9939C227.67 27.4371 284.33 27.4371 307.181 65.9939ZM292.406 74.8491C276.226 47.5475 235.774 47.5475 219.594 74.8491L32.3614 390.767C16.1809 418.068 36.4066 452.195 68.7677 452.195H443.232C475.593 452.195 495.819 418.068 479.639 390.767L292.406 74.8491Z" fill="white" fill-opacity="1"/>
<path d="M219.594 74.8491C235.774 47.5476 276.226 47.5475 292.406 74.8491L479.639 390.767C495.819 418.068 475.593 452.195 443.232 452.195H68.7677C36.4066 452.195 16.1809 418.068 32.3614 390.767L219.594 74.8491Z" fill="url(#paint0_linear_10688_267)" fill-opacity="1"/>
<path d="M258.867 406.071C273.115 406.071 284.667 394.368 284.667 379.934C284.667 365.499 273.115 353.797 258.867 353.797C244.617 353.797 233.067 365.499 233.067 379.934C233.067 394.368 244.617 406.071 258.867 406.071Z" fill="white" fill-opacity="1"/>
<rect x="233.067" y="163.918" width="51.6" height="165.112" rx="1" fill="white"/>
<defs>
<linearGradient id="paint0_linear_10688_267" x1="256" y1="54.3729" x2="256" y2="452.195" gradientUnits="userSpaceOnUse">
<stop stop-color="#E94040" stop-opacity="1"/>
<stop offset="1" stop-color="#A90202" stop-opacity="1"/>
</linearGradient>
</defs>
</svg>
