<?xml version="1.0" encoding="UTF-8" standalone="no"?>
<svg version="1.1" id="Layer_1" x="0px" y="0px" viewBox="0 0 463.70002 50.599998" xml:space="preserve" sodipodi:docname="WebrootSmall.svg"
	width="463.70001" height="50.599998" inkscape:version="1.1.1 (3bf5ae0d25, 2021-09-20)" xmlns:inkscape="http://www.inkscape.org/namespaces/inkscape"
	xmlns:sodipodi="http://sodipodi.sourceforge.net/DTD/sodipodi-0.dtd" xmlns="http://www.w3.org/2000/svg" xmlns:svg="http://www.w3.org/2000/svg">
<defs id="defs154" />
<sodipodi:namedview id="namedview152" pagecolor="#ffffff" bordercolor="#666666" borderopacity="1.0" inkscape:pageshadow="2" inkscape:pageopacity="0.0"
	inkscape:pagecheckerboard="0" showgrid="false" fit-margin-top="0" fit-margin-left="0" fit-margin-right="0" fit-margin-bottom="0" inkscape:zoom="2.8213106"
	inkscape:cx="151.87977" inkscape:cy="106.68801" inkscape:window-width="3840" inkscape:window-height="2066" inkscape:window-x="-11" inkscape:window-y="-11"
	inkscape:window-maximized="1" inkscape:current-layer="Layer_1" />
<g transform="translate(-28.7,-54.5)">
	<path d="m 111.3,55.8 -16,47.9 h -16 l -9.3,-28 -9.3,28 h -16 l -16,-47.9 h 16 l 9.5,28.6 9.5,-28.6 h 12.5 l 9.5,28.6 9.5,-28.6 c 0,0 16.1,0 16.1,0 z"/>
	<path d="m 165,91.8 v 12 h -49.3 v -48 H 165 v 12 h -34.6 v 6 h 32 v 12 h -32 v 6 z" />
	<path d="m 226.9,90 c 0,7.6 -6.2,13.8 -13.8,13.8 h -40.8 v -48 h 38.1 c 7.6,0 13.8,6.2 13.8,13.8 0,3.4 -1.2,6.5 -3.3,9 3.6,2.5 6,6.6 6,11.4 z M 187,67.8 v 6.7 h 19.3 c 1.8,0 3.3,-1.5 3.3,-3.3 0,-1.8 -1.5,-3.3 -3.3,-3.3 z m 25.2,20.6 c 0,-1.8 -1.5,-3.3 -3.3,-3.3 h -22 v 6.7 h 22 c 1.9,0 3.3,-1.5 3.3,-3.4 z" />
	<path d="m 265.5,91.8 h -17.6 v 12 h -14.6 v -48 h 36.6 c 9.9,0 18,8.1 18,18 0,6 -3,11.4 -7.6,14.6 l 8.1,15.3 h -16.5 z m -17.7,-12 h 19.3 c 3.3,0 6,-2.7 6,-6 0,-3.3 -2.7,-6 -6,-6 h -19.3 z" />
	<path d="m 323.3,105.1 c -18.7,0 -30.7,-5.3 -30.7,-25.3 0,-18.6 10.7,-25.3 30.7,-25.3 19.9,0 30.6,6.7 30.6,25.3 0,20 -10.6,25.3 -30.6,25.3 z m 0,-38.6 c -9.4,0 -14.7,2.7 -14.7,13.3 0,10.7 5.3,13.3 14.7,13.3 9.3,0 14.6,-2.7 14.6,-13.3 0,-10.7 -5.1,-13.3 -14.6,-13.3 z" />
	<path d="m 389.3,105.1 c -18.7,0 -30.7,-5.3 -30.7,-25.3 0,-18.6 10.7,-25.3 30.7,-25.3 19.9,0 30.6,6.7 30.6,25.3 0,20 -10.6,25.3 -30.6,25.3 z m 0,-38.6 c -9.4,0 -14.7,2.7 -14.7,13.3 0,10.7 5.3,13.3 14.7,13.3 9.3,0 14.6,-2.7 14.6,-13.3 0,-10.7 -5.1,-13.3 -14.6,-13.3 z" />
	<path d="M 476.3,67.8 H 457 v 35.9 H 442.4 V 67.8 h -19.3 v -12 h 53.3 v 12 z" />
	<path d="m 490.7,65.8 c -1.1,1.1 -2.5,1.6 -4.1,1.6 -1.6,0 -3,-0.6 -4.1,-1.7 -1.1,-1.1 -1.7,-2.5 -1.7,-4.1 0,-1.7 0.6,-3.1 1.8,-4.2 1.1,-1.1 2.5,-1.6 4,-1.6 1.6,0 3,0.6 4.1,1.7 1.1,1.1 1.7,2.5 1.7,4.1 0,1.7 -0.6,3.1 -1.7,4.2 z m -7.5,-7.5 c -0.9,0.9 -1.4,2.1 -1.4,3.4 0,1.3 0.5,2.5 1.4,3.4 0.9,0.9 2.1,1.4 3.4,1.4 1.3,0 2.4,-0.5 3.4,-1.4 0.9,-1 1.4,-2.1 1.4,-3.4 0,-1.3 -0.5,-2.4 -1.4,-3.4 -0.9,-1 -2.1,-1.4 -3.4,-1.4 -1.3,-0.1 -2.5,0.4 -3.4,1.4 z m 0.9,6.6 v -6.4 c 0.4,0 1,0 1.8,0 0.8,0 1.2,0 1.3,0 0.5,0 0.9,0.1 1.3,0.3 0.6,0.3 0.9,0.8 0.9,1.5 0,0.5 -0.2,0.9 -0.5,1.2 -0.3,0.2 -0.7,0.4 -1.1,0.4 0.4,0.1 0.7,0.2 0.9,0.4 0.4,0.3 0.6,0.8 0.6,1.4 v 0.6 c 0,0.1 0,0.1 0,0.2 0,0.1 0,0.1 0,0.2 l 0.1,0.2 h -1.6 c -0.1,-0.2 -0.1,-0.5 -0.1,-0.9 0,-0.4 -0.1,-0.7 -0.1,-0.8 -0.1,-0.2 -0.2,-0.4 -0.5,-0.5 -0.1,-0.1 -0.3,-0.1 -0.6,-0.1 h -0.4 -0.4 v 2.3 c 0,0 -1.6,0 -1.6,0 z m 3,-5.2 c -0.2,-0.1 -0.6,-0.1 -1,-0.1 h -0.4 v 1.9 h 0.7 c 0.4,0 0.7,-0.1 0.9,-0.2 0.2,-0.1 0.3,-0.4 0.3,-0.8 0,-0.4 -0.1,-0.7 -0.5,-0.8 z" />
</g>
</svg>
