<svg width="32" height="32" viewBox="0 0 512 512" fill="none" xmlns="http://www.w3.org/2000/svg">
<path fill-rule="evenodd" clip-rule="evenodd" d="M299.605 31.0768L299.605 31.0769L492.655 224.127C513.492 244.964 513.435 278.69 492.695 299.563L492.655 299.603L299.605 492.653C278.767 513.491 245.042 513.434 224.168 492.693L224.128 492.653L31.0785 299.603C10.2409 278.766 10.2979 245.041 31.0388 224.167L31.0784 224.127L31.0785 224.127L224.128 31.0769C244.966 10.2393 278.691 10.2963 299.565 31.0372L299.605 31.0768ZM43.5236 236.572L236.574 43.522C250.516 29.5795 273.128 29.5795 287.16 43.522L480.21 236.572C494.152 250.514 494.152 273.126 480.21 287.158L287.16 480.208C273.217 494.151 250.605 494.151 236.574 480.208L43.5236 287.158C29.581 273.216 29.581 250.604 43.5236 236.572Z" fill="white" fill-opacity="1"/>
<path d="M236.574 43.5221C250.516 29.5796 273.128 29.5796 287.16 43.5221L480.21 236.572C494.152 250.515 494.152 273.126 480.21 287.158L287.16 480.208C273.217 494.151 250.605 494.151 236.574 480.208L43.5236 287.158C29.5811 273.216 29.5811 250.604 43.5236 236.572L236.574 43.5221Z" fill="url(#paint0_linear_10688_314)" fill-opacity="1"/>
<path d="M256 367.466C268.96 367.466 279.467 356.409 279.467 342.771C279.467 329.132 268.96 318.075 256 318.075C243.039 318.075 232.533 329.132 232.533 342.771C232.533 356.409 243.039 367.466 256 367.466Z" fill="white" fill-opacity="1"/>
<rect x="232.533" y="138.667" width="46.9333" height="156.007" rx="1" fill="white"/>
<defs>
<linearGradient id="paint0_linear_10688_314" x1="261.867" y1="32.171" x2="261.867" y2="489.995" gradientUnits="userSpaceOnUse">
<stop stop-color="#FFBD6D" stop-opacity="1"/>
<stop offset="1" stop-color="#FF9C26" stop-opacity="1"/>
</linearGradient>
</defs>
</svg>
